<svg xmlns="http://www.w3.org/2000/svg" width="120" height="40" fill="none"><g clip-path="url(#a)"><path fill="#000" d="M110.471 0H9.871c-.367 0-.73 0-1.095.002-.306.002-.61.008-.92.013-.67.008-1.34.067-2.003.177a6.665 6.665 0 0 0-1.9.627A6.438 6.438 0 0 0 .53 5.522a12.993 12.993 0 0 0-.179 2.002c-.01.306-.01.614-.015.92V31.56c.005.31.006.611.015.922.008.67.068 1.34.18 2.002.11.663.32 1.305.624 1.904.303.598.701 1.143 1.179 1.614.472.477 1.019.875 1.618 1.179a6.7 6.7 0 0 0 1.901.63c.663.11 1.332.169 2.004.177.309.007.613.011.919.011.366.002.728.002 1.095.002h100.6c.359 0 .724 0 1.084-.002.304 0 .617-.004.922-.01a13.27 13.27 0 0 0 2-.177 6.815 6.815 0 0 0 1.908-.631A6.293 6.293 0 0 0 118.002 38a6.403 6.403 0 0 0 1.182-1.614c.302-.6.51-1.242.619-1.904.111-.662.173-1.331.185-2.002.004-.311.004-.612.004-.922.008-.364.008-.725.008-1.094V9.536c0-.366 0-.73-.008-1.092 0-.306 0-.614-.004-.92a13.57 13.57 0 0 0-.185-2.002 6.648 6.648 0 0 0-.619-1.904 6.469 6.469 0 0 0-2.799-2.8 6.78 6.78 0 0 0-1.908-.627c-.662-.11-1.33-.169-2-.176-.305-.005-.618-.011-.922-.013C111.195 0 110.83 0 110.471 0Z"/><path fill="#fff" d="M8.78 39.125c-.304 0-.601-.004-.904-.01a12.696 12.696 0 0 1-1.869-.164 5.884 5.884 0 0 1-1.656-.548 5.406 5.406 0 0 1-1.397-1.016 5.321 5.321 0 0 1-1.02-1.397 5.722 5.722 0 0 1-.544-1.657 12.415 12.415 0 0 1-.166-1.875c-.007-.21-.015-.913-.015-.913v-23.1s.009-.692.015-.895c.007-.628.063-1.253.165-1.872a5.756 5.756 0 0 1 .544-1.662c.26-.518.603-.99 1.015-1.398A5.566 5.566 0 0 1 6.003 1.05C6.623.95 7.251.895 7.88.887L8.78.875H111.55l.913.013a12.37 12.37 0 0 1 1.858.162 5.943 5.943 0 0 1 1.671.548 5.594 5.594 0 0 1 2.415 2.42 5.74 5.74 0 0 1 .535 1.649c.104.624.162 1.255.174 1.887.003.283.003.588.003.89.008.375.008.732.008 1.092v20.929c0 .363 0 .718-.008 1.075 0 .325 0 .623-.004.93-.011.62-.069 1.24-.171 1.853a5.716 5.716 0 0 1-.54 1.67 5.47 5.47 0 0 1-1.015 1.386 5.414 5.414 0 0 1-1.4 1.022 5.855 5.855 0 0 1-1.668.55c-.618.101-1.243.156-1.869.163-.293.007-.6.011-.897.011l-1.084.002-101.69-.002Z"/><g fill="#000"><path d="M25.333 19.89a5.145 5.145 0 0 1 2.45-4.318 5.267 5.267 0 0 0-4.15-2.244c-1.746-.183-3.44 1.045-4.33 1.045-.906 0-2.276-1.027-3.752-.996a5.529 5.529 0 0 0-4.651 2.836c-2.011 3.482-.511 8.6 1.415 11.414.964 1.379 2.09 2.918 3.565 2.863 1.442-.06 1.981-.92 3.722-.92 1.725 0 2.23.92 3.734.886 1.548-.026 2.523-1.385 3.453-2.776a11.402 11.402 0 0 0 1.58-3.216 4.973 4.973 0 0 1-3.036-4.575ZM22.492 11.477a5.067 5.067 0 0 0 1.159-3.63 5.155 5.155 0 0 0-3.335 1.726 4.822 4.822 0 0 0-1.19 3.495 4.261 4.261 0 0 0 3.366-1.591Z"/></g><g fill="#000"><path d="M42.638 27.14h-4.734l-1.136 3.356h-2.005l4.483-12.418h2.083l4.484 12.418h-2.04l-1.135-3.356Zm-4.243-1.55h3.752l-1.85-5.446h-.052l-1.85 5.447ZM55.495 25.97c0 2.813-1.506 4.62-3.778 4.62a3.07 3.07 0 0 1-2.849-1.583h-.043v4.484h-1.858V21.442h1.799v1.506h.034a3.212 3.212 0 0 1 2.883-1.6c2.297 0 3.812 1.816 3.812 4.622Zm-1.91 0c0-1.833-.947-3.038-2.393-3.038-1.42 0-2.375 1.23-2.375 3.038 0 1.824.956 3.046 2.375 3.046 1.446 0 2.393-1.197 2.393-3.046ZM65.46 25.97c0 2.813-1.506 4.62-3.778 4.62a3.07 3.07 0 0 1-2.849-1.583h-.043v4.484h-1.858V21.442h1.798v1.506h.035a3.212 3.212 0 0 1 2.883-1.6c2.297 0 3.812 1.816 3.812 4.622Zm-1.91 0c0-1.833-.947-3.038-2.393-3.038-1.42 0-2.375 1.23-2.375 3.038 0 1.824.955 3.046 2.375 3.046 1.446 0 2.393-1.197 2.393-3.046ZM72.046 27.036c.137 1.232 1.333 2.04 2.968 2.04 1.567 0 2.694-.808 2.694-1.919 0-.964-.68-1.54-2.29-1.936l-1.609-.388c-2.28-.55-3.339-1.617-3.339-3.348 0-2.142 1.868-3.614 4.518-3.614 2.625 0 4.424 1.472 4.484 3.614h-1.876c-.112-1.239-1.136-1.987-2.634-1.987-1.497 0-2.521.757-2.521 1.858 0 .878.654 1.395 2.255 1.79l1.368.336c2.548.603 3.606 1.626 3.606 3.443 0 2.323-1.85 3.778-4.794 3.778-2.753 0-4.613-1.42-4.733-3.667h1.903ZM83.682 19.3v2.142h1.722v1.472h-1.722v4.991c0 .776.345 1.137 1.102 1.137.204-.004.408-.018.611-.043v1.463c-.34.064-.686.092-1.032.086-1.833 0-2.548-.689-2.548-2.444v-5.19h-1.316v-1.472h1.316V19.3h1.867ZM86.4 25.97c0-2.849 1.678-4.639 4.294-4.639 2.625 0 4.295 1.79 4.295 4.639 0 2.856-1.661 4.638-4.295 4.638-2.633 0-4.294-1.782-4.294-4.638Zm6.695 0c0-1.954-.895-3.108-2.401-3.108-1.506 0-2.401 1.162-2.401 3.108 0 1.962.895 3.106 2.4 3.106 1.507 0 2.402-1.144 2.402-3.106ZM96.521 21.442h1.772v1.541h.043a2.16 2.16 0 0 1 2.178-1.635c.214-.001.428.022.637.07v1.737a2.594 2.594 0 0 0-.835-.112 1.872 1.872 0 0 0-1.937 2.083v5.37h-1.858v-9.053ZM109.719 27.837c-.25 1.643-1.85 2.771-3.898 2.771-2.634 0-4.269-1.764-4.269-4.595 0-2.84 1.644-4.682 4.191-4.682 2.505 0 4.08 1.72 4.08 4.466v.637h-6.395v.112a2.353 2.353 0 0 0 .639 1.832 2.364 2.364 0 0 0 1.797.732 2.045 2.045 0 0 0 2.091-1.273h1.764Zm-6.282-2.702h4.526a2.167 2.167 0 0 0-.608-1.634 2.168 2.168 0 0 0-1.612-.664 2.293 2.293 0 0 0-2.306 2.298Z"/></g><g fill="#000"><path d="M38.162 8.73a2.64 2.64 0 0 1 2.808 2.966c0 1.906-1.03 3.002-2.808 3.002h-2.155V8.73h2.155Zm-1.228 5.124h1.125a1.876 1.876 0 0 0 1.967-2.146 1.882 1.882 0 0 0-1.967-2.134h-1.125v4.28ZM42.017 12.444a2.133 2.133 0 1 1 4.247 0 2.134 2.134 0 1 1-4.247 0Zm3.333 0c0-.976-.439-1.547-1.208-1.547-.773 0-1.207.571-1.207 1.547 0 .984.434 1.55 1.207 1.55.77 0 1.208-.57 1.208-1.55ZM51.91 14.698h-.923l-.93-3.317h-.07l-.927 3.317h-.913l-1.242-4.503h.902l.806 3.436h.067l.925-3.436h.853l.926 3.436h.07l.803-3.436h.889l-1.237 4.503ZM54.19 10.195h.855v.715h.066a1.348 1.348 0 0 1 1.344-.802 1.466 1.466 0 0 1 1.559 1.675v2.915h-.889v-2.692c0-.724-.314-1.084-.972-1.084a1.034 1.034 0 0 0-1.075 1.141v2.635h-.889v-4.503ZM59.43 8.437h.888v6.26h-.888v-6.26ZM61.554 12.444a2.133 2.133 0 1 1 4.247 0 2.134 2.134 0 1 1-4.247 0Zm3.333 0c0-.976-.439-1.546-1.208-1.546-.773 0-1.207.57-1.207 1.546 0 .984.434 1.55 1.207 1.55.77 0 1.208-.57 1.208-1.55ZM66.737 13.424c0-.81.603-1.277 1.675-1.344l1.22-.07v-.389c0-.476-.315-.744-.922-.744-.497 0-.84.182-.939.5h-.86c.09-.773.818-1.27 1.84-1.27 1.128 0 1.765.563 1.765 1.514v3.077h-.855v-.633h-.07a1.515 1.515 0 0 1-1.353.707 1.36 1.36 0 0 1-1.501-1.348Zm2.894-.384v-.377l-1.1.07c-.62.042-.9.253-.9.65 0 .405.35.64.834.64a1.064 1.064 0 0 0 1.166-.983ZM71.684 12.444c0-1.423.731-2.324 1.87-2.324a1.485 1.485 0 0 1 1.38.79h.067V8.437h.888v6.26h-.851v-.71h-.07a1.563 1.563 0 0 1-1.415.785c-1.145 0-1.869-.901-1.869-2.328Zm.918 0c0 .955.45 1.53 1.203 1.53.75 0 1.212-.583 1.212-1.526 0-.938-.468-1.53-1.212-1.53-.748 0-1.203.58-1.203 1.526ZM79.566 12.444a2.133 2.133 0 1 1 4.247 0 2.134 2.134 0 1 1-4.247 0Zm3.333 0c0-.976-.439-1.547-1.208-1.547-.773 0-1.207.571-1.207 1.547 0 .984.434 1.55 1.207 1.55.77 0 1.208-.57 1.208-1.55ZM85.005 10.195h.856v.715h.066a1.348 1.348 0 0 1 1.344-.802 1.466 1.466 0 0 1 1.559 1.675v2.915h-.89v-2.692c0-.724-.314-1.084-.97-1.084a1.034 1.034 0 0 0-1.076 1.141v2.635h-.889v-4.503ZM93.851 9.074v1.141h.976v.749h-.976v2.315c0 .472.194.678.637.678.113 0 .226-.007.339-.02v.74c-.16.029-.322.044-.484.046-.988 0-1.382-.348-1.382-1.216v-2.543h-.714v-.749h.714V9.074h.89ZM96.04 8.437h.881v2.482h.07a1.385 1.385 0 0 1 1.374-.807 1.485 1.485 0 0 1 1.55 1.678v2.908h-.89V12.01c0-.72-.334-1.084-.962-1.084a1.05 1.05 0 0 0-1.134 1.142v2.63h-.888V8.437ZM105.097 13.482a1.828 1.828 0 0 1-1.951 1.303 2.042 2.042 0 0 1-2.01-1.447 2.034 2.034 0 0 1-.07-.877 2.077 2.077 0 0 1 2.076-2.353c1.253 0 2.009.856 2.009 2.27v.31h-3.18v.05a1.19 1.19 0 0 0 1.199 1.29 1.08 1.08 0 0 0 1.072-.546h.855Zm-3.126-1.451h2.275a1.09 1.09 0 0 0-1.109-1.167 1.148 1.148 0 0 0-1.081.718 1.15 1.15 0 0 0-.085.449Z"/></g></g><defs><clipPath id="a"><path fill="#fff" d="M.336 0H120v40H.336z"/></clipPath></defs></svg>