<svg width="16" height="16" viewBox="0 0 16 16" fill="none" xmlns="http://www.w3.org/2000/svg">
<path d="M8.00345 11C8.17617 11 8.34888 10.9387 8.46632 10.8221L13.8135 5.95706C13.9309 5.85276 14 5.71779 14 5.56442C14 5.2454 13.7306 5 13.3713 5C13.1986 5 13.0397 5.06135 12.9223 5.15951L8.00345 9.62577L3.07772 5.15951C2.96718 5.06135 2.80829 5 2.62867 5C2.26943 5 2 5.2454 2 5.56442C2 5.71779 2.06908 5.85276 2.18653 5.96319L7.53368 10.8221C7.66494 10.9387 7.82383 11 8.00345 11Z" fill="#90949E"/>
</svg>
