<svg width="16" height="16" viewBox="0 0 16 16" fill="none" xmlns="http://www.w3.org/2000/svg">
<path d="M0.261088 14.4651C-0.0819663 14.8081 -0.0920561 15.3933 0.261088 15.7364C0.614233 16.0794 1.19944 16.0794 1.5425 15.7364L8 9.27889L14.4575 15.7364C14.8006 16.0794 15.3959 16.0895 15.7389 15.7364C16.082 15.3832 16.082 14.8081 15.7389 14.4651L9.28141 7.99748L15.7389 1.53998C16.082 1.19692 16.0921 0.61171 15.7389 0.268655C15.3858 -0.0844891 14.8006 -0.0844891 14.4575 0.268655L8 6.72616L1.5425 0.268655C1.19944 -0.0844891 0.604143 -0.094579 0.261088 0.268655C-0.0819663 0.6218 -0.0819663 1.19692 0.261088 1.53998L6.71859 7.99748L0.261088 14.4651Z" fill="#646871"/>
</svg>
