<svg width="17" height="23" viewBox="0 0 17 23" fill="none" xmlns="http://www.w3.org/2000/svg">
<path d="M3.87988 1.60693H13.0552C12.9902 0.771973 12.4985 0.32666 11.5986 0.32666H5.32715C4.42725 0.32666 3.93555 0.771973 3.87988 1.60693ZM2.28418 4.29736H14.6416C14.5117 3.41602 14.0664 2.91504 13.0737 2.91504H3.85205C2.85938 2.91504 2.41406 3.41602 2.28418 4.29736ZM3.27686 22.2954H13.9458C15.7178 22.2954 16.7568 21.2656 16.7568 19.2803V8.7876C16.7568 6.80225 15.7178 5.77246 13.7139 5.77246H3.27686C1.27295 5.77246 0.233887 6.80225 0.233887 8.7876V19.2803C0.233887 21.2656 1.27295 22.2954 3.27686 22.2954ZM3.38818 20.4771C2.52539 20.4771 2.05225 20.0317 2.05225 19.1318V8.93604C2.05225 8.03613 2.52539 7.59082 3.38818 7.59082H13.6025C14.4561 7.59082 14.9385 8.03613 14.9385 8.93604V19.1318C14.9385 20.0317 14.4561 20.4771 13.8345 20.4771H3.38818Z" fill="white"/>
</svg>
