<svg width="16" height="16" viewBox="0 0 16 16" fill="none" xmlns="http://www.w3.org/2000/svg">
<path d="M8 16C12.3765 16 16 12.3686 16 8C16 3.62353 12.3686 0 7.99216 0C3.62353 0 0 3.62353 0 8C0 12.3686 3.63137 16 8 16ZM8 14.6667C4.29804 14.6667 1.34118 11.702 1.34118 8C1.34118 4.29804 4.2902 1.33333 7.99216 1.33333C11.6941 1.33333 14.6588 4.29804 14.6667 8C14.6745 11.702 11.702 14.6667 8 14.6667ZM7.83529 9.62353C8.22745 9.62353 8.47059 9.38039 8.47059 9.06667V8.97255C8.47059 8.53333 8.72157 8.25882 9.27059 7.89804C10.0314 7.39608 10.5725 6.93333 10.5725 6C10.5725 4.6902 9.41177 3.99216 8.07843 3.99216C6.72941 3.99216 5.84314 4.62745 5.63137 5.34902C5.59216 5.48235 5.56078 5.60784 5.56078 5.74118C5.56078 6.08627 5.84314 6.28235 6.10196 6.28235C6.54902 6.28235 6.61961 6.03922 6.87059 5.74902C7.12941 5.31765 7.50588 5.05882 8.03137 5.05882C8.7451 5.05882 9.20784 5.45882 9.20784 6.06275C9.20784 6.59608 8.87843 6.8549 8.19608 7.32549C7.63137 7.71765 7.20784 8.13333 7.20784 8.90196V9.00392C7.20784 9.41961 7.43529 9.62353 7.83529 9.62353ZM7.81961 11.9686C8.27451 11.9686 8.66667 11.6078 8.66667 11.1529C8.66667 10.6902 8.28235 10.3373 7.81961 10.3373C7.35686 10.3373 6.97255 10.698 6.97255 11.1529C6.97255 11.6 7.36471 11.9686 7.81961 11.9686Z" fill="#90949E"/>
</svg>
