<svg width="35" height="35" viewBox="0 0 35 35" fill="none" xmlns="http://www.w3.org/2000/svg">
<path fill-rule="evenodd" clip-rule="evenodd" d="M19.6332 16.0739L30.2276 5.47952L29.5205 4.77241L18.9214 15.3715L24.6575 1.52235L23.7336 1.13969L17.9986 14.9862V0H16.9986V14.9862L11.2636 1.13969L10.3397 1.52235L16.0739 15.3667L5.47952 4.77241L4.77241 5.47952L15.3667 16.0738L1.52235 10.3397L1.13969 11.2636L14.9862 16.9986H0V17.9986H14.9862L1.13969 23.7336L1.52235 24.6575L15.3715 18.9214L4.77241 29.5205L5.47952 30.2276L16.0739 19.6332L10.3397 33.4777L11.2636 33.8603L16.9986 20.0138V35H17.9986V20.0138L23.7336 33.8603L24.6575 33.4777L18.9214 19.6285L29.5205 30.2276L30.2276 29.5205L19.6285 18.9214L33.4777 24.6575L33.8603 23.7336L20.0138 17.9986H35V16.9986H20.0138L33.8603 11.2636L33.4777 10.3397L19.6332 16.0739Z" fill="white"/>
</svg>
