<svg xmlns="http://www.w3.org/2000/svg" fill="none" viewBox="0 0 188 188"><circle cx="94" cy="94" r="94" fill="#000"/><path fill="#fff" fill-rule="evenodd" d="m108.622 84.227 38.713-38.713-4.849-4.849L103.753 79.4l20.962-50.61-6.336-2.625L97.423 76.76V22h-6.857v54.765l-20.957-50.6-6.336 2.623 20.953 50.589-38.711-38.712-4.849 4.849L79.38 84.228 28.788 63.273l-2.624 6.336 50.598 20.957H22v6.857h54.762L26.164 118.38l2.624 6.334 50.611-20.962-38.733 38.733 4.849 4.849 38.712-38.713-20.954 50.59 6.336 2.624 20.957-50.601V166h6.858v-54.761l20.955 50.597 6.336-2.624-20.963-50.612 38.734 38.735 4.849-4.849-38.732-38.732 50.608 20.961 2.625-6.334-50.598-20.958H166v-6.857h-54.762l50.598-20.957-2.625-6.336-50.589 20.954Z" clip-rule="evenodd"/></svg>
